<mxfile host="app.diagrams.net" agent="Mozilla/5.0 (Windows NT 10.0; Win64; x64) AppleWebKit/537.36 (KHTML, like Gecko) Chrome/136.0.0.0 Safari/537.36" version="27.0.9">
  <diagram name="Страница — 1" id="P01H9IGzsVBKKXXb3qMG">
    <mxGraphModel dx="1141" dy="1793" grid="1" gridSize="10" guides="1" tooltips="1" connect="1" arrows="1" fold="1" page="1" pageScale="1" pageWidth="827" pageHeight="1169" math="0" shadow="0">
      <root>
        <mxCell id="0" />
        <mxCell id="1" parent="0" />
        <mxCell id="pL0q1dB_KrGiLHPkA37B-4" style="edgeStyle=orthogonalEdgeStyle;rounded=0;orthogonalLoop=1;jettySize=auto;html=1;entryX=0.5;entryY=0;entryDx=0;entryDy=0;" edge="1" parent="1" source="pL0q1dB_KrGiLHPkA37B-1" target="pL0q1dB_KrGiLHPkA37B-3">
          <mxGeometry relative="1" as="geometry" />
        </mxCell>
        <mxCell id="pL0q1dB_KrGiLHPkA37B-9" style="edgeStyle=orthogonalEdgeStyle;rounded=0;orthogonalLoop=1;jettySize=auto;html=1;entryX=0.5;entryY=0;entryDx=0;entryDy=0;" edge="1" parent="1" source="pL0q1dB_KrGiLHPkA37B-1" target="pL0q1dB_KrGiLHPkA37B-7">
          <mxGeometry relative="1" as="geometry" />
        </mxCell>
        <mxCell id="pL0q1dB_KrGiLHPkA37B-12" style="edgeStyle=orthogonalEdgeStyle;rounded=0;orthogonalLoop=1;jettySize=auto;html=1;entryX=1;entryY=0;entryDx=0;entryDy=0;" edge="1" parent="1" source="pL0q1dB_KrGiLHPkA37B-1" target="pL0q1dB_KrGiLHPkA37B-11">
          <mxGeometry relative="1" as="geometry" />
        </mxCell>
        <mxCell id="pL0q1dB_KrGiLHPkA37B-15" style="edgeStyle=orthogonalEdgeStyle;rounded=0;orthogonalLoop=1;jettySize=auto;html=1;entryX=0.5;entryY=0;entryDx=0;entryDy=0;" edge="1" parent="1" source="pL0q1dB_KrGiLHPkA37B-1" target="pL0q1dB_KrGiLHPkA37B-13">
          <mxGeometry relative="1" as="geometry" />
        </mxCell>
        <mxCell id="pL0q1dB_KrGiLHPkA37B-21" style="edgeStyle=orthogonalEdgeStyle;rounded=0;orthogonalLoop=1;jettySize=auto;html=1;entryX=0.5;entryY=0;entryDx=0;entryDy=0;" edge="1" parent="1" source="pL0q1dB_KrGiLHPkA37B-1" target="pL0q1dB_KrGiLHPkA37B-18">
          <mxGeometry relative="1" as="geometry" />
        </mxCell>
        <mxCell id="pL0q1dB_KrGiLHPkA37B-25" style="edgeStyle=orthogonalEdgeStyle;rounded=0;orthogonalLoop=1;jettySize=auto;html=1;entryX=0.5;entryY=0;entryDx=0;entryDy=0;" edge="1" parent="1" source="pL0q1dB_KrGiLHPkA37B-1" target="pL0q1dB_KrGiLHPkA37B-22">
          <mxGeometry relative="1" as="geometry" />
        </mxCell>
        <mxCell id="pL0q1dB_KrGiLHPkA37B-30" style="edgeStyle=orthogonalEdgeStyle;rounded=0;orthogonalLoop=1;jettySize=auto;html=1;entryX=0.5;entryY=0;entryDx=0;entryDy=0;" edge="1" parent="1" source="pL0q1dB_KrGiLHPkA37B-1" target="pL0q1dB_KrGiLHPkA37B-26">
          <mxGeometry relative="1" as="geometry" />
        </mxCell>
        <mxCell id="pL0q1dB_KrGiLHPkA37B-33" style="edgeStyle=orthogonalEdgeStyle;rounded=0;orthogonalLoop=1;jettySize=auto;html=1;entryX=1;entryY=0.5;entryDx=0;entryDy=0;" edge="1" parent="1" source="pL0q1dB_KrGiLHPkA37B-1" target="pL0q1dB_KrGiLHPkA37B-32">
          <mxGeometry relative="1" as="geometry" />
        </mxCell>
        <mxCell id="pL0q1dB_KrGiLHPkA37B-1" value="Газовая инфраструктура ЯНАО" style="rounded=0;whiteSpace=wrap;html=1;" vertex="1" parent="1">
          <mxGeometry x="264" y="-250" width="300" height="60" as="geometry" />
        </mxCell>
        <mxCell id="pL0q1dB_KrGiLHPkA37B-3" value="Railways" style="swimlane;whiteSpace=wrap;html=1;" vertex="1" parent="1">
          <mxGeometry x="50" y="-110" width="80" height="220" as="geometry" />
        </mxCell>
        <mxCell id="pL0q1dB_KrGiLHPkA37B-6" value="&lt;ul&gt;&lt;li&gt;full_id&lt;/li&gt;&lt;li&gt;osm_id&lt;/li&gt;&lt;li&gt;osm_type&lt;/li&gt;&lt;li&gt;railway&lt;/li&gt;&lt;li&gt;railway_tr&lt;/li&gt;&lt;li&gt;tracktype&lt;/li&gt;&lt;li&gt;name&lt;/li&gt;&lt;li&gt;service&lt;/li&gt;&lt;li&gt;layer&lt;/li&gt;&lt;li&gt;bridge&lt;/li&gt;&lt;/ul&gt;" style="text;strokeColor=none;fillColor=none;html=1;whiteSpace=wrap;verticalAlign=middle;overflow=hidden;" vertex="1" parent="pL0q1dB_KrGiLHPkA37B-3">
          <mxGeometry x="-20" y="30" width="100" height="180" as="geometry" />
        </mxCell>
        <mxCell id="pL0q1dB_KrGiLHPkA37B-7" value="Pipelines" style="swimlane;whiteSpace=wrap;html=1;" vertex="1" parent="1">
          <mxGeometry x="140" y="-110" width="90" height="220" as="geometry" />
        </mxCell>
        <mxCell id="pL0q1dB_KrGiLHPkA37B-8" value="&lt;ul&gt;&lt;li&gt;Name&lt;/li&gt;&lt;li&gt;Lenght&lt;/li&gt;&lt;li&gt;OBJECTID&lt;/li&gt;&lt;li&gt;Shape_Len&lt;/li&gt;&lt;/ul&gt;" style="text;strokeColor=none;fillColor=none;html=1;whiteSpace=wrap;verticalAlign=middle;overflow=hidden;" vertex="1" parent="pL0q1dB_KrGiLHPkA37B-7">
          <mxGeometry x="-20" y="-20" width="110" height="180" as="geometry" />
        </mxCell>
        <mxCell id="pL0q1dB_KrGiLHPkA37B-10" value="Waterways" style="swimlane;whiteSpace=wrap;html=1;" vertex="1" parent="1">
          <mxGeometry x="250" y="-110" width="80" height="220" as="geometry" />
        </mxCell>
        <mxCell id="pL0q1dB_KrGiLHPkA37B-11" value="&lt;ul&gt;&lt;li&gt;full_id&lt;/li&gt;&lt;li&gt;osm_id&lt;/li&gt;&lt;li&gt;osm_type&lt;/li&gt;&lt;li&gt;waterway&lt;/li&gt;&lt;li&gt;name_en&lt;/li&gt;&lt;li&gt;layer&lt;/li&gt;&lt;li&gt;int_name&lt;/li&gt;&lt;li&gt;have_river&lt;/li&gt;&lt;/ul&gt;" style="text;strokeColor=none;fillColor=none;html=1;whiteSpace=wrap;verticalAlign=middle;overflow=hidden;" vertex="1" parent="pL0q1dB_KrGiLHPkA37B-10">
          <mxGeometry x="-20" width="100" height="180" as="geometry" />
        </mxCell>
        <mxCell id="pL0q1dB_KrGiLHPkA37B-13" value="Roads" style="swimlane;whiteSpace=wrap;html=1;" vertex="1" parent="1">
          <mxGeometry x="344" y="-110" width="86" height="220" as="geometry" />
        </mxCell>
        <mxCell id="pL0q1dB_KrGiLHPkA37B-14" value="&lt;ul&gt;&lt;li&gt;full_id&lt;/li&gt;&lt;li&gt;osm_id&lt;/li&gt;&lt;li&gt;osm_type&lt;/li&gt;&lt;li&gt;highway&lt;/li&gt;&lt;li&gt;postal_cod&lt;/li&gt;&lt;li&gt;name&lt;/li&gt;&lt;li&gt;lit&lt;/li&gt;&lt;li&gt;loc_ref&lt;/li&gt;&lt;li&gt;loc_name&lt;/li&gt;&lt;li&gt;ref&lt;/li&gt;&lt;li&gt;maxspeed&lt;/li&gt;&lt;li&gt;surface&lt;/li&gt;&lt;/ul&gt;" style="text;strokeColor=none;fillColor=none;html=1;whiteSpace=wrap;verticalAlign=middle;overflow=hidden;" vertex="1" parent="pL0q1dB_KrGiLHPkA37B-13">
          <mxGeometry x="-20" y="20" width="100" height="200" as="geometry" />
        </mxCell>
        <mxCell id="pL0q1dB_KrGiLHPkA37B-16" value="City" style="swimlane;whiteSpace=wrap;html=1;" vertex="1" parent="1">
          <mxGeometry x="440" y="-110" width="86" height="220" as="geometry" />
        </mxCell>
        <mxCell id="pL0q1dB_KrGiLHPkA37B-17" value="&lt;ul&gt;&lt;li&gt;full_id&lt;/li&gt;&lt;li&gt;osm_id&lt;/li&gt;&lt;li&gt;osm_type&lt;/li&gt;&lt;li&gt;place&lt;/li&gt;&lt;li&gt;flag&lt;/li&gt;&lt;li&gt;name&lt;/li&gt;&lt;li&gt;population&lt;/li&gt;&lt;li&gt;int_name&lt;/li&gt;&lt;/ul&gt;" style="text;strokeColor=none;fillColor=none;html=1;whiteSpace=wrap;verticalAlign=middle;overflow=hidden;" vertex="1" parent="pL0q1dB_KrGiLHPkA37B-16">
          <mxGeometry x="-20" width="100" height="180" as="geometry" />
        </mxCell>
        <mxCell id="pL0q1dB_KrGiLHPkA37B-18" value="Border" style="swimlane;whiteSpace=wrap;html=1;" vertex="1" parent="1">
          <mxGeometry x="540" y="-110" width="86" height="220" as="geometry" />
        </mxCell>
        <mxCell id="pL0q1dB_KrGiLHPkA37B-19" value="&lt;ul&gt;&lt;li&gt;ISO3166-2&lt;/li&gt;&lt;li&gt;addr_count&lt;/li&gt;&lt;li&gt;boundary&lt;/li&gt;&lt;li&gt;image&lt;/li&gt;&lt;li&gt;name&lt;/li&gt;&lt;li&gt;timezone&lt;/li&gt;&lt;li&gt;population&lt;/li&gt;&lt;/ul&gt;" style="text;strokeColor=none;fillColor=none;html=1;whiteSpace=wrap;verticalAlign=middle;overflow=hidden;" vertex="1" parent="pL0q1dB_KrGiLHPkA37B-18">
          <mxGeometry x="-30" y="10" width="110" height="140" as="geometry" />
        </mxCell>
        <mxCell id="pL0q1dB_KrGiLHPkA37B-20" style="edgeStyle=orthogonalEdgeStyle;rounded=0;orthogonalLoop=1;jettySize=auto;html=1;entryX=0.611;entryY=0.001;entryDx=0;entryDy=0;entryPerimeter=0;" edge="1" parent="1" source="pL0q1dB_KrGiLHPkA37B-1" target="pL0q1dB_KrGiLHPkA37B-17">
          <mxGeometry relative="1" as="geometry" />
        </mxCell>
        <mxCell id="pL0q1dB_KrGiLHPkA37B-22" value="Gazsites" style="swimlane;whiteSpace=wrap;html=1;" vertex="1" parent="1">
          <mxGeometry x="640" y="-110" width="100" height="220" as="geometry" />
        </mxCell>
        <mxCell id="pL0q1dB_KrGiLHPkA37B-23" value="&lt;ul&gt;&lt;li&gt;FIELD_ID&lt;/li&gt;&lt;li&gt;FLD_NAME&lt;/li&gt;&lt;li&gt;REG_CODE&lt;/li&gt;&lt;li&gt;REG_NAME&lt;/li&gt;&lt;li&gt;COUNRTY&lt;/li&gt;&lt;li&gt;LAT_DD&lt;/li&gt;&lt;li&gt;LON_DD&lt;/li&gt;&lt;li&gt;LOC_ACCY&lt;/li&gt;&lt;li&gt;OBJECTID&lt;/li&gt;&lt;li&gt;AGE_CODE&lt;/li&gt;&lt;li&gt;TRAP_CLASS&lt;/li&gt;&lt;/ul&gt;" style="text;strokeColor=none;fillColor=none;html=1;whiteSpace=wrap;verticalAlign=middle;overflow=hidden;" vertex="1" parent="pL0q1dB_KrGiLHPkA37B-22">
          <mxGeometry x="-24" y="5" width="110" height="210" as="geometry" />
        </mxCell>
        <mxCell id="pL0q1dB_KrGiLHPkA37B-29" style="edgeStyle=orthogonalEdgeStyle;rounded=0;orthogonalLoop=1;jettySize=auto;html=1;entryX=1;entryY=0.5;entryDx=0;entryDy=0;" edge="1" parent="1" source="pL0q1dB_KrGiLHPkA37B-26" target="pL0q1dB_KrGiLHPkA37B-22">
          <mxGeometry relative="1" as="geometry" />
        </mxCell>
        <mxCell id="pL0q1dB_KrGiLHPkA37B-26" value="Images" style="swimlane;whiteSpace=wrap;html=1;" vertex="1" parent="1">
          <mxGeometry x="780" y="-110" width="100" height="120" as="geometry" />
        </mxCell>
        <mxCell id="pL0q1dB_KrGiLHPkA37B-27" value="&lt;ul&gt;&lt;li&gt;id&lt;/li&gt;&lt;li&gt;image&lt;/li&gt;&lt;li&gt;image_id&lt;/li&gt;&lt;li&gt;caption&lt;/li&gt;&lt;li&gt;name&lt;/li&gt;&lt;/ul&gt;" style="text;strokeColor=none;fillColor=none;html=1;whiteSpace=wrap;verticalAlign=middle;overflow=hidden;" vertex="1" parent="pL0q1dB_KrGiLHPkA37B-26">
          <mxGeometry x="-14" y="20" width="114" height="95" as="geometry" />
        </mxCell>
        <mxCell id="pL0q1dB_KrGiLHPkA37B-34" style="edgeStyle=orthogonalEdgeStyle;rounded=0;orthogonalLoop=1;jettySize=auto;html=1;entryX=1;entryY=0.5;entryDx=0;entryDy=0;" edge="1" parent="1" source="pL0q1dB_KrGiLHPkA37B-31" target="pL0q1dB_KrGiLHPkA37B-22">
          <mxGeometry relative="1" as="geometry" />
        </mxCell>
        <mxCell id="pL0q1dB_KrGiLHPkA37B-31" value="GasNames" style="swimlane;whiteSpace=wrap;html=1;" vertex="1" parent="1">
          <mxGeometry x="780" y="30" width="100" height="120" as="geometry" />
        </mxCell>
        <mxCell id="pL0q1dB_KrGiLHPkA37B-32" value="&lt;ul&gt;&lt;li&gt;id&lt;/li&gt;&lt;li&gt;Gas_id&lt;/li&gt;&lt;li&gt;name&lt;/li&gt;&lt;/ul&gt;" style="text;strokeColor=none;fillColor=none;html=1;whiteSpace=wrap;verticalAlign=middle;overflow=hidden;" vertex="1" parent="pL0q1dB_KrGiLHPkA37B-31">
          <mxGeometry x="-14" y="20" width="114" height="95" as="geometry" />
        </mxCell>
      </root>
    </mxGraphModel>
  </diagram>
</mxfile>
